<svg width="786" height="536" viewBox="0 0 786 536" fill="none" xmlns="http://www.w3.org/2000/svg">
<path d="M413.833 18L247.167 268H497.167L330.5 518M768 309.667V226.333M213.833 18H151.333C104.662 18 81.3267 18 63.5008 27.0829C47.8204 35.0721 35.0721 47.8204 27.0829 63.5008C18 81.3267 18 104.662 18 151.333V384.667C18 431.338 18 454.675 27.0829 472.5C35.0721 488.179 47.8204 500.929 63.5008 508.917C81.3267 518 104.662 518 151.333 518H163.833M580.5 18H593C639.671 18 663.008 18 680.833 27.0829C696.513 35.0721 709.263 47.8204 717.25 63.5008C726.333 81.3267 726.333 104.662 726.333 151.333V384.667C726.333 431.338 726.333 454.675 717.25 472.5C709.263 488.179 696.513 500.929 680.833 508.917C663.008 518 639.671 518 593 518H530.917" stroke="#181E22" stroke-width="35" stroke-linecap="round" stroke-linejoin="round"/>
</svg>
