<svg width="651" height="603" viewBox="0 0 651 603" fill="none" xmlns="http://www.w3.org/2000/svg">
<path d="M109.833 589C149.529 589 181.708 556.82 181.708 517.125C181.708 477.43 149.529 445.25 109.833 445.25C70.1378 445.25 37.9583 477.43 37.9583 517.125C37.9583 556.82 70.1378 589 109.833 589Z" stroke="#181E22" stroke-width="28" stroke-miterlimit="10" stroke-linecap="round" stroke-linejoin="round"/>
<path d="M565.042 589C604.737 589 636.917 556.82 636.917 517.125C636.917 477.43 604.737 445.25 565.042 445.25C525.346 445.25 493.167 477.43 493.167 517.125C493.167 556.82 525.346 589 565.042 589Z" stroke="#181E22" stroke-width="28" stroke-miterlimit="10" stroke-linecap="round" stroke-linejoin="round"/>
<path d="M289.521 85.875C309.369 85.875 325.458 69.7852 325.458 49.9375C325.458 30.0898 309.369 14 289.521 14C269.673 14 253.583 30.0898 253.583 49.9375C253.583 69.7852 269.673 85.875 289.521 85.875Z" stroke="#181E22" stroke-width="28" stroke-miterlimit="10" stroke-linecap="round" stroke-linejoin="round"/>
<path d="M277.542 85.875H49.9375C30.7708 85.875 14 69.1042 14 49.9375C14 30.7708 30.7708 14 49.9375 14H277.542" stroke="#181E22" stroke-width="28" stroke-miterlimit="10" stroke-linecap="round" stroke-linejoin="round"/>
<path d="M493.167 517.125H181.708" stroke="#181E22" stroke-width="28" stroke-miterlimit="10" stroke-linecap="round" stroke-linejoin="round"/>
<path d="M109.833 445.25V85.875H181.708V373.375C181.708 414.104 215.25 445.25 253.583 445.25H411.708C430.875 445.25 447.646 435.667 459.625 421.292C483.583 392.542 519.521 373.375 562.646 373.375C589 373.375 612.958 380.562 634.521 392.542" stroke="#181E22" stroke-width="28" stroke-miterlimit="10" stroke-linecap="round" stroke-linejoin="round"/>
</svg>
