<svg width="650" height="650" viewBox="0 0 650 650" fill="none" xmlns="http://www.w3.org/2000/svg">
<path d="M81.25 230.75H68.25V243.75V528.216C67.7452 543.138 73.1411 556.191 84.0093 566.487C94.6395 576.558 107.583 581.75 122.2 581.75H528.45C543.082 581.75 555.947 576.538 566.242 566.242C576.538 555.947 581.75 543.082 581.75 528.45V243.75V230.75H568.75H81.25ZM68.25 203.45V216.45H81.25H568.75H581.75V203.45V122.442C582.26 107.808 576.762 94.9276 566.242 84.4076C555.773 73.938 543.006 68.25 528.45 68.25H122.2H121.959L121.719 68.2589C106.961 68.8055 94.0296 74.1357 83.7576 84.4076C73.4618 94.7034 68.25 107.568 68.25 122.2V203.45ZM44.8577 604.974C23.5474 584.051 13 558.808 13 528.45V122.2C13 91.8369 23.5547 66.3301 44.9424 44.9424C66.3301 23.5547 91.8369 13 122.2 13H528.45C558.33 13 583.634 23.5192 605.058 44.9424C626.445 66.3301 637 91.8369 637 122.2V528.45C637 558.33 626.481 583.634 605.058 605.058C583.634 626.481 558.33 637 528.45 637H122.283C91.8234 636.591 66.2499 625.977 44.8577 604.974ZM149.5 378.95V393.25H135.2V378.95H149.5ZM149.5 297.7V312H135.2V297.7H149.5ZM175.5 338H190.45V352.95H175.5V338ZM149.5 135.2V149.5H135.2V135.2H149.5ZM271.7 419.25V434.2H216.45V419.25H271.7ZM230.75 135.2V149.5H216.45V135.2H230.75ZM515.45 135.2V149.5H297.7V135.2H515.45Z" stroke="#181E22" stroke-width="26"/>
</svg>
