<svg width="684" height="680" viewBox="0 0 684 680" fill="none" xmlns="http://www.w3.org/2000/svg">
<path d="M462.797 170.672L511.279 122.19L532.096 143.006L483.613 191.488L462.797 170.672Z" stroke="#181E22" stroke-width="23"/>
<path d="M166.218 552.97L145.414 532.143L193.924 483.687L214.728 504.515L166.218 552.97Z" stroke="#181E22" stroke-width="23"/>
<path d="M467.662 344.672C467.662 412.429 413.214 467.193 346.251 467.193C279.287 467.193 224.84 412.429 224.84 344.672C224.84 276.916 279.287 222.152 346.251 222.152C413.214 222.152 467.662 276.916 467.662 344.672Z" stroke="#181E22" stroke-width="23"/>
<path d="M267.892 338.613C267.892 298.41 300.423 265.759 340.832 265.759C381.047 265.759 413.772 298.429 413.772 338.613C413.772 378.829 381.058 411.425 340.832 411.425C300.45 411.425 267.892 378.844 267.892 338.613Z" stroke="#181E22" stroke-width="23"/>
<path d="M421.253 655.785L421.189 655.801L421.125 655.818C395.157 662.61 368.323 666.708 340.448 666.708C158.775 666.708 11.5 519.247 11.5 337.333C11.5 155.535 158.659 11.5 340.448 11.5C522.237 11.5 669.396 155.535 669.396 337.333C669.396 376.354 660.114 414.227 645.045 453.155H466.703H455.123L455.203 464.734L456.463 647.008L421.253 655.785ZM531.284 112.533L523.152 104.402L515.021 112.533L450.251 177.303L442.119 185.435L450.251 193.567L487.329 230.645L495.461 238.777L503.593 230.645L568.363 165.875L576.494 157.744L568.363 149.612L531.284 112.533ZM146.876 568.358L155.008 576.499L163.145 568.363L227.915 503.593L236.042 495.466L227.919 487.334L190.883 450.255L182.752 442.114L174.615 450.251L109.845 515.021L101.718 523.148L109.841 531.279L146.876 568.358ZM341.344 199.152C264.31 199.152 201.84 261.643 201.84 338.697C201.84 415.715 264.274 478.16 341.344 478.16C418.33 478.16 480.848 415.676 480.848 338.697C480.848 261.597 418.332 199.152 341.344 199.152Z" stroke="#181E22" stroke-width="23"/>
<path d="M523.516 520.828H672.183V668.5H523.516V520.828Z" stroke="#181E22" stroke-width="23"/>
</svg>
