<svg width="772" height="450" viewBox="0 0 772 450" fill="none" xmlns="http://www.w3.org/2000/svg">
<path d="M693.145 289.286V303.286H707.145H739.288C749.308 303.286 757.43 311.409 757.429 321.428V321.429C757.429 331.449 749.306 339.571 739.286 339.571H707.144H693.144V353.571C693.144 399.109 656.253 436 610.715 436H546.426H224.997H160.714C115.176 436 78.2849 399.109 78.2849 353.571V160.714V146.714H64.2849H32.1424C22.1225 146.714 14 138.591 14 128.571C14 118.551 22.1225 110.429 32.1424 110.429H64.2849H78.2849V96.4288C78.2849 50.8914 115.176 14 160.714 14H224.997H546.427H610.717C656.254 14 693.145 50.8914 693.145 96.4288V289.286ZM206.853 64.2864V50.2864H192.853H160.714C135.216 50.2864 114.571 70.9313 114.571 96.4288V353.571C114.571 379.07 135.216 399.715 160.714 399.715H192.853H206.853V385.715V64.2864ZM257.141 50.2848H243.141V64.2848V371.714V385.714V385.715L257.141 385.714V399.714H514.285H528.285V385.714V64.2848V50.2848H514.285H257.141ZM564.57 385.714V399.714H578.57H610.717C636.214 399.714 656.859 379.069 656.859 353.571V96.4273C656.859 70.9298 636.214 50.2848 610.717 50.2848H578.57H564.57V64.2848V385.714Z" stroke="#181E22" stroke-width="28"/>
<path d="M468.142 128.57V128.571C468.142 138.591 460.02 146.714 450 146.714H321.429C311.409 146.714 303.286 138.591 303.286 128.571C303.286 118.552 311.408 110.429 321.43 110.429H450.001C460.022 110.429 468.143 118.551 468.142 128.57Z" stroke="#181E22" stroke-width="28"/>
<path d="M468.142 224.999V225C468.142 235.02 460.02 243.142 450 243.142H321.429C311.409 243.142 303.286 235.02 303.286 225C303.286 214.98 311.408 206.857 321.43 206.857H450.001C460.022 206.857 468.143 214.98 468.142 224.999Z" stroke="#181E22" stroke-width="28"/>
<path d="M468.142 321.427V321.429C468.142 331.449 460.02 339.571 450 339.571H321.429C311.409 339.571 303.286 331.449 303.286 321.429C303.286 311.409 311.408 303.286 321.43 303.286H450.001C460.022 303.286 468.143 311.409 468.142 321.427Z" stroke="#181E22" stroke-width="28"/>
</svg>
