<svg width="715" height="500" viewBox="0 0 715 500" fill="none" xmlns="http://www.w3.org/2000/svg">
<path d="M556.429 160.714V175.714H571.429H699.286V217.143H571.429H556.429V232.143V270.714H535.714H520.714V285.714V321.429C520.714 336.394 514.769 350.747 504.187 361.33C493.604 371.912 479.251 377.857 464.286 377.857H71.4286C56.4628 377.857 42.11 371.912 31.5275 361.33C20.9451 350.747 15 336.394 15 321.429V71.4286C15 56.4628 20.9451 42.11 31.5275 31.5275C42.11 20.9451 56.4628 15 71.4286 15H464.286C479.252 15 493.604 20.9451 504.187 31.5275C514.769 42.11 520.714 56.4628 520.714 71.4286V107.143V122.143H535.714H556.429V160.714ZM428.571 336.429H443.571V321.429V285.714V270.714H428.571H107.143H92.1429V285.714V321.429V336.429H107.143H428.571ZM428.571 265H443.571V250V214.286V199.286H428.571H107.143H92.1429V214.286V250V265H107.143H428.571ZM428.571 193.571H443.571V178.571V142.857V127.857H428.571H107.143H92.1429V142.857V178.571V193.571H107.143H428.571ZM428.571 122.143H443.571V107.143V71.4286V56.4286H428.571H107.143H92.1429V71.4286V107.143V122.143H107.143H428.571ZM50.7143 443.571H485V485H50.7143V443.571Z" stroke="#181E22" stroke-width="30"/>
</svg>
