<svg width="718" height="800" viewBox="0 0 718 800" fill="none" xmlns="http://www.w3.org/2000/svg">
<path d="M543.857 737.087L543.933 737.027L544.009 736.967C563.33 721.51 573.202 699.102 573.202 674.304C573.202 649.251 562.483 626.945 543.354 611.642L543.315 611.61L543.275 611.579C527.308 599.034 520.174 584.523 520.174 568.249C520.174 564.97 521.217 563.132 522.207 562.142C523.197 561.151 525.036 560.109 528.314 560.109C531.593 560.109 533.431 561.151 534.421 562.142C535.411 563.132 536.454 564.97 536.454 568.249C536.454 573.747 537.313 578.982 539.552 584.083C541.764 589.123 545.042 593.384 548.988 597.33L549.566 597.908L550.219 598.398C573.263 615.681 586.209 642.252 586.209 674.304C586.209 706.333 573.288 732.851 549.674 750.13L548.959 750.653L548.333 751.279C540.505 759.107 536.454 767.847 536.454 779.051V780.917L537.044 782.687C537.327 783.537 537.323 783.931 537.309 784.107C537.297 784.26 537.24 784.768 536.66 785.784L536.502 786.061L536.359 786.346C535.905 787.254 534.285 788.5 532.242 788.5C528.964 788.5 527.125 787.457 526.135 786.467C525.145 785.477 524.102 783.639 524.102 780.36C524.102 763.247 532.56 745.816 543.857 737.087ZM345.493 737.087L345.57 737.027L345.646 736.967C364.966 721.51 374.839 699.102 374.839 674.304C374.839 649.251 364.119 626.945 344.991 611.642L344.951 611.61L344.912 611.579C328.945 599.034 321.811 584.523 321.811 568.249C321.811 564.97 322.854 563.132 323.844 562.142C324.834 561.151 326.672 560.109 329.951 560.109C333.23 560.109 335.068 561.151 336.058 562.142C337.048 563.132 338.091 564.97 338.091 568.249C338.091 573.747 338.949 578.982 341.189 584.083C343.401 589.123 346.679 593.384 350.624 597.33L351.202 597.908L351.856 598.398C374.9 615.681 387.845 642.252 387.845 674.304C387.845 706.333 374.925 732.851 351.311 750.13L350.596 750.653L349.97 751.279C342.141 759.107 338.091 767.847 338.091 779.051V780.917L338.681 782.687C338.964 783.536 338.96 783.931 338.946 784.107C338.934 784.26 338.877 784.768 338.297 785.784L338.138 786.061L337.996 786.346C337.542 787.254 335.922 788.5 333.879 788.5C330.6 788.5 328.762 787.457 327.772 786.467C326.782 785.477 325.739 783.639 325.739 780.36C325.739 763.247 334.197 745.816 345.493 737.087ZM147.13 737.087L147.207 737.027L147.282 736.967C166.603 721.51 176.475 699.102 176.475 674.304C176.475 649.251 165.756 626.945 146.628 611.642L146.588 611.61L146.548 611.579C130.582 599.034 123.448 584.523 123.448 568.249C123.448 564.97 124.49 563.132 125.48 562.142C126.47 561.151 128.309 560.109 131.588 560.109C134.866 560.109 136.705 561.151 137.695 562.142C138.685 563.132 139.727 564.97 139.727 568.249C139.727 573.747 140.586 578.982 142.825 584.083C145.038 589.123 148.315 593.384 152.261 597.33L152.839 597.908L153.493 598.398C176.537 615.681 189.482 642.252 189.482 674.304C189.482 706.333 176.562 732.851 152.947 750.13L152.233 750.653L151.606 751.279C143.778 759.107 139.727 767.847 139.727 779.051V780.917L140.318 782.687C140.601 783.537 140.597 783.931 140.582 784.107C140.57 784.26 140.514 784.768 139.933 785.784L139.775 786.061L139.632 786.346C139.178 787.254 137.558 788.5 135.516 788.5C132.237 788.5 130.398 787.457 129.408 786.467C128.418 785.477 127.376 783.639 127.376 780.36C127.376 763.247 135.833 745.816 147.13 737.087ZM137.48 358.472H143.081L146.534 354.062L266.992 200.216L269.438 197.093V193.126V19.6399C269.438 16.3613 270.48 14.5227 271.471 13.5327C272.461 12.5427 274.299 11.5 277.578 11.5H445.827C449.105 11.5 450.944 12.5427 451.934 13.5327C452.924 14.5227 453.966 16.3613 453.966 19.6399V184.615V188.579L456.409 191.701L583.414 354.058L586.867 358.472H592.471H663.83C685.629 358.472 705.358 378.201 705.358 400V452.373V453.789L705.701 455.162C706.224 457.254 706.02 458.41 705.63 459.216C704.583 460.207 702.758 461.168 699.836 461.168H19.6399C16.3613 461.168 14.5227 460.125 13.5327 459.135C12.5427 458.145 11.5 456.306 11.5 453.028V400C11.5 378.201 31.2285 358.472 53.0278 358.472H137.48ZM677.578 444.233H689.078V432.733V399.345C689.078 392.804 686.847 386.459 682.109 381.721C677.371 376.983 671.026 374.752 664.484 374.752H53.0278C46.4865 374.752 40.1417 376.983 35.4035 381.721C30.6652 386.459 28.4345 392.804 28.4345 399.345V432.733V444.233H39.9345H677.578ZM532.242 351.926H555.829L541.302 333.343L440.484 204.374L437.031 199.957H431.424H289.362H283.755L280.301 204.374L179.483 333.343L164.957 351.926H188.543H532.242ZM422.913 183.022H434.413V171.522V39.2799V27.7799H422.913H293.944H282.444V39.2799V171.522V183.022H293.944H422.913Z" stroke="#181E22" stroke-width="23"/>
</svg>
