<svg width="680" height="680" viewBox="0 0 680 680" fill="none" xmlns="http://www.w3.org/2000/svg">
<path d="M303.889 665C463.438 665 592.778 535.66 592.778 376.111C592.778 216.562 463.438 87.2222 303.889 87.2222C144.34 87.2222 15 216.562 15 376.111C15 535.66 144.34 665 303.889 665Z" stroke="#181E22" stroke-width="30" stroke-linecap="round" stroke-linejoin="round"/>
<path d="M303.889 448.333C343.776 448.333 376.111 415.998 376.111 376.111C376.111 336.224 343.776 303.889 303.889 303.889C264.002 303.889 231.667 336.224 231.667 376.111C231.667 415.998 264.002 448.333 303.889 448.333Z" stroke="#181E22" stroke-width="30" stroke-linecap="round" stroke-linejoin="round"/>
<path d="M303.889 15C351.31 15 398.269 24.3405 442.081 42.488C485.893 60.6354 525.702 87.2347 559.232 120.767C592.765 154.299 619.365 194.108 637.512 237.919C655.66 281.731 665 328.69 665 376.111H520.671C520.671 347.643 515.065 319.453 504.17 293.151C493.275 266.852 477.307 242.953 457.177 222.823C437.047 202.693 413.149 186.725 386.849 175.83C360.547 164.935 332.357 159.329 303.889 159.329V15Z" stroke="#181E22" stroke-width="30" stroke-linecap="round" stroke-linejoin="round"/>
</svg>
