<svg width="701" height="701" viewBox="0 0 701 701" fill="none" xmlns="http://www.w3.org/2000/svg">
<path d="M350.5 687.5C164.374 687.5 13.5 536.626 13.5 350.5C13.5 164.374 164.374 13.5 350.5 13.5C536.626 13.5 687.5 164.374 687.5 350.5C687.5 536.626 536.626 687.5 350.5 687.5Z" stroke="#181E22" stroke-width="26"/>
<path d="M519.056 350.5C519.056 312.733 506.34 276.334 483.044 246.687L502.155 229.171C529.835 263.68 544.907 306.268 544.907 350.5C544.907 457.683 457.683 544.907 350.5 544.907C243.317 544.907 156.093 457.683 156.093 350.5C156.093 247.685 236.353 163.235 337.5 156.523V182.44C250.595 189.097 181.944 261.915 181.944 350.5C181.944 443.459 257.541 519.056 350.5 519.056C443.459 519.056 519.056 443.459 519.056 350.5Z" stroke="#181E22" stroke-width="26"/>
<path d="M345.237 359.34L338.896 341.592L394.504 249.789L365.668 351.16L345.237 359.34Z" stroke="#181E22" stroke-width="26"/>
</svg>
